<svg xmlns="http://www.w3.org/2000/svg" version="1.1" xmlns:xlink="http://www.w3.org/1999/xlink" xmlns:svgjs="http://svgjs.dev/svgjs" width="1000" height="1000" viewBox="0 0 1000 1000"><rect width="1000" height="1000" fill="#ffffff"></rect><g transform="matrix(0.7,0,0,0.7,149.5757638708293,415.31565939986)"><svg viewBox="0 0 396 96" data-background-color="#ffffff" preserveAspectRatio="xMidYMid meet" height="242" width="1000" xmlns="http://www.w3.org/2000/svg" xmlns:xlink="http://www.w3.org/1999/xlink"><g id="tight-bounds" transform="matrix(1,0,0,1,0.2399964387880118,-0.008874276189857255)"><svg viewBox="0 0 395.52 96.01774663120082" height="96.01774663120082" width="395.52"><g><svg viewBox="0 0 395.52 96.01774663120082" height="96.01774663120082" width="395.52"><g><svg viewBox="0 0 546.3718794795636 132.63904907534823" height="96.01774663120082" width="395.52"><g><rect width="5.770152594844934" height="64.30402523913408" x="129.97661537988915" y="34.167511918107074" fill="#000000" opacity="1" stroke-width="0" stroke="transparent" fill-opacity="1" class="rect-o-0" data-fill-palette-color="primary" rx="1%" id="o-0" data-palette-color="#0063db"></rect></g><g transform="matrix(1,0,0,1,150.85187947956376,34.32747217989596)"><svg viewBox="0 0 395.5199999999999 63.9841047155563" height="63.9841047155563" width="395.5199999999999"><g><svg viewBox="0 0 395.5199999999999 63.9841047155563" height="63.9841047155563" width="395.5199999999999"><g><svg viewBox="0 0 395.5199999999999 63.9841047155563" height="63.9841047155563" width="395.5199999999999"><g transform="matrix(1,0,0,1,0,0)"><svg width="395.5199999999999" viewBox="4 -38.79999923706055 294.42999267578125 48.20000076293945" height="63.9841047155563" data-palette-color="#0063db"><g class="undefined-text-0" data-fill-palette-color="primary" id="text-0"><path d="M14.4-35.05L14.4-35.05Q22.15-35.05 26.3-32.33 30.45-29.6 30.45-23.4L30.45-23.4Q30.45-17.15 26.25-14.38 22.05-11.6 14.25-11.6L14.25-11.6 11.8-11.6 11.8 0 4 0 4-34.15Q6.55-34.65 9.4-34.85 12.25-35.05 14.4-35.05ZM14.9-28.4L14.9-28.4Q14.05-28.4 13.23-28.35 12.4-28.3 11.8-28.25L11.8-28.25 11.8-18.25 14.25-18.25Q18.3-18.25 20.35-19.35 22.4-20.45 22.4-23.45L22.4-23.45Q22.4-24.9 21.88-25.85 21.35-26.8 20.38-27.38 19.4-27.95 18-28.18 16.6-28.4 14.9-28.4ZM43.15 0L35.7 0 35.7-37.6 43.15-38.8 43.15-26.2Q43.9-26.45 45.07-26.68 46.25-26.9 47.35-26.9L47.35-26.9Q50.55-26.9 52.67-26.03 54.8-25.15 56.07-23.55 57.35-21.95 57.87-19.75 58.4-17.55 58.4-14.85L58.4-14.85 58.4 0 50.95 0 50.95-13.95Q50.95-17.55 50.02-19.05 49.1-20.55 46.6-20.55L46.6-20.55Q45.6-20.55 44.72-20.38 43.85-20.2 43.15-20L43.15-20 43.15 0ZM87.6-26.3L87.6-0.9Q85.7-0.35 82.7 0.13 79.7 0.6 76.4 0.6L76.4 0.6Q73.05 0.6 70.82-0.3 68.6-1.2 67.3-2.83 66-4.45 65.45-6.7 64.9-8.95 64.9-11.65L64.9-11.65 64.9-26.3 72.35-26.3 72.35-12.55Q72.35-8.95 73.3-7.35 74.25-5.75 76.85-5.75L76.85-5.75Q77.65-5.75 78.55-5.83 79.45-5.9 80.15-6L80.15-6 80.15-26.3 87.6-26.3ZM119.19-13.2L119.19-13.2Q119.19-10.1 118.29-7.53 117.39-4.95 115.69-3.13 113.99-1.3 111.62-0.3 109.24 0.7 106.29 0.7L106.29 0.7Q103.39 0.7 101.02-0.3 98.64-1.3 96.94-3.13 95.24-4.95 94.29-7.53 93.34-10.1 93.34-13.2L93.34-13.2Q93.34-16.3 94.32-18.85 95.29-21.4 97.02-23.2 98.74-25 101.12-26 103.49-27 106.29-27L106.29-27Q109.14-27 111.52-26 113.89-25 115.59-23.2 117.29-21.4 118.24-18.85 119.19-16.3 119.19-13.2ZM111.59-13.2L111.59-13.2Q111.59-16.65 110.22-18.63 108.84-20.6 106.29-20.6L106.29-20.6Q103.74-20.6 102.34-18.63 100.94-16.65 100.94-13.2L100.94-13.2Q100.94-9.75 102.34-7.73 103.74-5.7 106.29-5.7L106.29-5.7Q108.84-5.7 110.22-7.73 111.59-9.75 111.59-13.2ZM124.94 0L124.94-25.4Q126.84-25.95 129.84-26.43 132.84-26.9 136.14-26.9L136.14-26.9Q139.49-26.9 141.72-26.03 143.94-25.15 145.24-23.55 146.54-21.95 147.09-19.75 147.64-17.55 147.64-14.85L147.64-14.85 147.64 0 140.19 0 140.19-13.95Q140.19-17.55 139.24-19.05 138.29-20.55 135.69-20.55L135.69-20.55Q134.89-20.55 133.99-20.48 133.09-20.4 132.39-20.3L132.39-20.3 132.39 0 124.94 0ZM160.74-14L160.74-14Q160.74-7.75 165.79-7.75L165.79-7.75Q166.94-7.75 167.94-8.05 168.94-8.35 169.64-8.75L169.64-8.75 169.64-20.65Q169.09-20.75 168.34-20.83 167.59-20.9 166.59-20.9L166.59-20.9Q163.64-20.9 162.19-18.95 160.74-17 160.74-14ZM177.09-25.4L177.09-3.3Q177.09 3.15 173.81 6.28 170.54 9.4 163.69 9.4L163.69 9.4Q161.29 9.4 158.89 8.97 156.49 8.55 154.44 7.85L154.44 7.85 155.74 1.6Q157.49 2.3 159.41 2.7 161.34 3.1 163.79 3.1L163.79 3.1Q166.99 3.1 168.31 1.7 169.64 0.3 169.64-1.9L169.64-1.9 169.64-2.85Q168.44-2.3 167.16-2.02 165.89-1.75 164.39-1.75L164.39-1.75Q158.94-1.75 156.04-4.98 153.14-8.2 153.14-14L153.14-14Q153.14-16.9 154.04-19.28 154.94-21.65 156.66-23.35 158.39-25.05 160.89-25.98 163.39-26.9 166.54-26.9L166.54-26.9Q167.89-26.9 169.31-26.78 170.74-26.65 172.14-26.45 173.54-26.25 174.81-25.98 176.09-25.7 177.09-25.4L177.09-25.4Z" fill="#000000" data-fill-palette-color="primary"></path><path d="M210.89 0L204.34 0Q200.99-5.95 197.09-11.75 193.19-17.55 188.79-22.7L188.79-22.7 188.79 0 181.09 0 181.09-34.65 187.44-34.65Q189.09-33 191.09-30.6 193.09-28.2 195.16-25.48 197.24-22.75 199.29-19.83 201.34-16.9 203.14-14.2L203.14-14.2 203.14-34.65 210.89-34.65 210.89 0ZM224.74-14L224.74-14Q224.74-7.75 229.79-7.75L229.79-7.75Q230.94-7.75 231.94-8.05 232.94-8.35 233.64-8.75L233.64-8.75 233.64-20.65Q233.09-20.75 232.34-20.83 231.59-20.9 230.59-20.9L230.59-20.9Q227.64-20.9 226.19-18.95 224.74-17 224.74-14ZM241.09-25.4L241.09-3.3Q241.09 3.15 237.81 6.28 234.54 9.4 227.69 9.4L227.69 9.4Q225.29 9.4 222.89 8.97 220.49 8.55 218.44 7.85L218.44 7.85 219.74 1.6Q221.49 2.3 223.41 2.7 225.34 3.1 227.79 3.1L227.79 3.1Q230.99 3.1 232.31 1.7 233.64 0.3 233.64-1.9L233.64-1.9 233.64-2.85Q232.44-2.3 231.16-2.02 229.89-1.75 228.39-1.75L228.39-1.75Q222.94-1.75 220.04-4.98 217.14-8.2 217.14-14L217.14-14Q217.14-16.9 218.04-19.28 218.94-21.65 220.66-23.35 222.39-25.05 224.89-25.98 227.39-26.9 230.54-26.9L230.54-26.9Q231.89-26.9 233.31-26.78 234.74-26.65 236.14-26.45 237.54-26.25 238.81-25.98 240.09-25.7 241.09-25.4L241.09-25.4ZM272.68-13.2L272.68-13.2Q272.68-10.1 271.79-7.53 270.89-4.95 269.18-3.13 267.49-1.3 265.11-0.3 262.74 0.7 259.79 0.7L259.79 0.7Q256.89 0.7 254.51-0.3 252.14-1.3 250.43-3.13 248.74-4.95 247.79-7.53 246.84-10.1 246.84-13.2L246.84-13.2Q246.84-16.3 247.81-18.85 248.79-21.4 250.51-23.2 252.24-25 254.61-26 256.99-27 259.79-27L259.79-27Q262.64-27 265.01-26 267.39-25 269.09-23.2 270.79-21.4 271.74-18.85 272.68-16.3 272.68-13.2ZM265.09-13.2L265.09-13.2Q265.09-16.65 263.71-18.63 262.34-20.6 259.79-20.6L259.79-20.6Q257.24-20.6 255.84-18.63 254.43-16.65 254.43-13.2L254.43-13.2Q254.43-9.75 255.84-7.73 257.24-5.7 259.79-5.7L259.79-5.7Q262.34-5.7 263.71-7.73 265.09-9.75 265.09-13.2ZM277.18-13.15L277.18-13.15Q277.18-16 278.11-18.53 279.03-21.05 280.78-22.93 282.53-24.8 285.03-25.9 287.53-27 290.73-27L290.73-27Q292.83-27 294.58-26.63 296.33-26.25 297.98-25.55L297.98-25.55 296.43-19.6Q295.38-20 294.13-20.3 292.88-20.6 291.33-20.6L291.33-20.6Q288.03-20.6 286.41-18.55 284.78-16.5 284.78-13.15L284.78-13.15Q284.78-9.6 286.31-7.65 287.83-5.7 291.63-5.7L291.63-5.7Q292.98-5.7 294.53-5.95 296.08-6.2 297.38-6.75L297.38-6.75 298.43-0.65Q297.13-0.1 295.18 0.3 293.23 0.7 290.88 0.7L290.88 0.7Q287.28 0.7 284.68-0.38 282.08-1.45 280.41-3.3 278.73-5.15 277.96-7.68 277.18-10.2 277.18-13.15Z" fill="#000000" data-fill-palette-color="accent"></path></g></svg></g></svg></g></svg></g></svg></g><g><svg viewBox="0 0 114.87150387505949 132.63904907534823" height="132.63904907534823" width="114.87150387505949"><g><svg xmlns="http://www.w3.org/2000/svg" xmlns:xlink="http://www.w3.org/1999/xlink" version="1.1" x="0" y="0" viewBox="9.54699993133545 3.2899999618530273 80.906005859375 93.41999816894531" enable-background="new 0 0 100 100" xml:space="preserve" height="132.63904907534823" width="114.87150387505949" class="icon-icon-0" data-fill-palette-color="accent" id="icon-0"><g fill="#d90000" data-fill-palette-color="accent"><path d="M31.112 39.094v21.812L49.999 71.81l18.89-10.903V39.094l-18.89-10.905L31.112 39.094zM60.925 56.308l-10.926 6.307-10.924-6.307V43.692l10.924-6.308 10.926 6.308V56.308z" fill="#000000" data-fill-palette-color="accent"></path><path d="M49.999 3.29L9.547 26.646v46.709L49.999 96.71l40.454-23.355V26.646L49.999 3.29zM82.19 68.584L49.999 87.169 17.811 68.584v-37.17l32.188-18.585L82.19 31.414V68.584z" fill="#000000" data-fill-palette-color="accent"></path><path d="M20.368 32.89v34.218l29.631 17.108 29.634-17.108V32.89L49.999 15.782 20.368 32.89zM71.446 62.383l-21.447 12.38-21.444-12.38V37.618l21.444-12.382 21.447 12.382V62.383z" fill="#000000" data-fill-palette-color="accent"></path></g></svg></g></svg></g></svg></g></svg></g><defs><mask id="fb92a3c0-c58c-4cf4-80a3-439fe248eacd"><rect width="640" height="400" fill="white"></rect><rect width="348.0576" height="75.35546218017251" fill="black" x="145.9712" y="162.32226890991376" id="transform-me" transform="matrix(1,0,0,1,-122.24000000000001,-164.6728732419291)"></rect></mask></defs></svg><rect width="395.52" height="96.01774663120082" fill="none" stroke="none" visibility="hidden"></rect></g></svg></g></svg>